<svg xmlns="http://www.w3.org/2000/svg" width="625" height="182.867" viewBox="0 0 625 182.867">
  <g id="Group_1085" data-name="Group 1085" transform="translate(-227 -461)">
    <path id="Path_558" data-name="Path 558" d="M19.043-6.592q1.172-2.417,2.71-5.31t3.3-5.859q1.758-2.966,3.7-5.9t4.065-5.566a14.544,14.544,0,0,1,4.285-3.7,8.786,8.786,0,0,1,4.065-1.135,6.279,6.279,0,0,1,5.64,2.783,12.263,12.263,0,0,1,1.831,6.885q0,.952-.11,2.307t-.22,2.893q-.11,1.538-.22,3.113t-.11,2.966a29.848,29.848,0,0,0,.183,3.369,10.15,10.15,0,0,0,.7,2.82,4.446,4.446,0,0,0,1.465,1.9,4.121,4.121,0,0,0,2.49.7,8.49,8.49,0,0,0,5.42-2.161A29.615,29.615,0,0,0,63.1-11.609a46.749,46.749,0,0,0,3.882-6.042q1.648-3.076,2.454-4.98A2.8,2.8,0,0,1,70.5-23.877a2.76,2.76,0,0,1,1.5-.439,2.5,2.5,0,0,1,2.014.916,2.974,2.974,0,0,1,.769,1.941,2.585,2.585,0,0,1-.22,1.025q-.293.586-1.172,2.417t-2.307,4.211q-1.428,2.38-3.333,5.054a33.722,33.722,0,0,1-4.211,4.871A23.775,23.775,0,0,1,58.557-.22a11.5,11.5,0,0,1-5.6,1.465A9.963,9.963,0,0,1,47.607-.037a9.266,9.266,0,0,1-3.223-3.369A13.77,13.77,0,0,1,42.81-8.02a32.283,32.283,0,0,1-.4-5.09q0-1.1.11-2.49t.293-2.93q.183-1.538.293-3.076t.11-2.93a5.029,5.029,0,0,0-.732-3.186,1.958,1.958,0,0,0-1.318-.842,4.28,4.28,0,0,0-2.673,1.355,25,25,0,0,0-3.149,3.552q-1.648,2.2-3.369,4.944t-3.223,5.457q-1.5,2.71-2.783,5.164T23.95-4.028A10.908,10.908,0,0,1,21.021.11a5.065,5.065,0,0,1-3,1.062A4.6,4.6,0,0,1,14.612-.11,4.9,4.9,0,0,1,13.33-3.735q0-.513.146-2.014t.366-3.589q.22-2.087.439-4.5t.439-4.8q.22-2.38.366-4.431t.146-3.442q0-1.831-.146-3.516A3.353,3.353,0,0,0,14.5-32.08q-.659.22-2.344,2.747a57.276,57.276,0,0,0-4.321,8.9,2.732,2.732,0,0,1-1.1,1.245A2.945,2.945,0,0,1,5.2-18.75a2.487,2.487,0,0,1-1.978-.842,2.871,2.871,0,0,1-.732-1.941,3.138,3.138,0,0,1,.22-1.1A52.567,52.567,0,0,1,8.9-34.167q2.893-3.7,5.75-3.7a4.765,4.765,0,0,1,2.856.842,6,6,0,0,1,1.868,2.234A11.994,11.994,0,0,1,20.4-31.714a17.886,17.886,0,0,1,.33,3.442q0,1.318-.183,4.1T20.068-18.2q-.293,3.186-.549,6.335T19.043-6.592ZM78.3-8.057a11.391,11.391,0,0,0,3.955,3.406,12.538,12.538,0,0,0,5.933,1.282A12.629,12.629,0,0,0,94.7-5.09a21.523,21.523,0,0,0,5.347-4.5,36.117,36.117,0,0,0,4.321-6.226q1.9-3.442,3.442-6.885a2.652,2.652,0,0,1,1.025-1.208,2.754,2.754,0,0,1,1.465-.4,2.548,2.548,0,0,1,2.014.879,2.839,2.839,0,0,1,.769,1.9,2.292,2.292,0,0,1-.073.623,3.215,3.215,0,0,1-.22.549Q107.739-9.229,101.77-3.589A19.755,19.755,0,0,1,88.257,2.2,17.563,17.563,0,0,1,79.907.33,17.517,17.517,0,0,1,74.121-4.5a20.375,20.375,0,0,1-3.369-6.7,26.362,26.362,0,0,1-1.1-7.471,24.588,24.588,0,0,1,.916-6.885,17.387,17.387,0,0,1,2.637-5.493,12.7,12.7,0,0,1,4.1-3.662,10.627,10.627,0,0,1,5.237-1.318,8.5,8.5,0,0,1,3.333.7,9.563,9.563,0,0,1,2.966,1.978,9.773,9.773,0,0,1,2.124,3.113,10.271,10.271,0,0,1,.806,4.175,15.422,15.422,0,0,1-1.025,5.64,18.965,18.965,0,0,1-2.82,4.907,24.01,24.01,0,0,1-4.285,4.175A31.457,31.457,0,0,1,78.3-8.057Zm-2.2-4.761a17.858,17.858,0,0,0,4.138-2.417,17.279,17.279,0,0,0,3.186-3.223,14.947,14.947,0,0,0,2.051-3.7,11.023,11.023,0,0,0,.732-3.918,4.609,4.609,0,0,0-1.1-3.333,3.46,3.46,0,0,0-2.563-1.135,5.27,5.27,0,0,0-3.369,1.1A8.3,8.3,0,0,0,76.9-26.587a14.771,14.771,0,0,0-1.282,3.918,23.336,23.336,0,0,0-.4,4.285,16.167,16.167,0,0,0,.256,2.783Q75.732-14.136,76.1-12.817ZM115.5-30.1a36.731,36.731,0,0,1-.732,3.7q-.439,1.721-.842,3t-.7,2.087a4.844,4.844,0,0,1-.366.879A2.591,2.591,0,0,1,110.3-18.75a2.839,2.839,0,0,1-1.9-.769,2.469,2.469,0,0,1-.879-1.941,1.2,1.2,0,0,1,.146-.659,6.978,6.978,0,0,0,.439-.879,18.623,18.623,0,0,0,.732-2.2q.439-1.538,1.1-4.761-1.245,0-2.563-.073a7.981,7.981,0,0,1-2.454-.513,4.243,4.243,0,0,1-1.868-1.392,4.231,4.231,0,0,1-.732-2.637,11.566,11.566,0,0,1,.7-3.369,22.571,22.571,0,0,1,1.868-4.175,17.447,17.447,0,0,1,2.637-3.552,4.182,4.182,0,0,1,2.93-1.5,3.442,3.442,0,0,1,2.747,1.245,8.859,8.859,0,0,1,1.648,3.04,20.7,20.7,0,0,1,.842,3.772,27.25,27.25,0,0,1,.256,3.442q1.245,0,2.454-.037t2.307-.037q4.175,0,6.372,1.831t2.2,6.006a29.531,29.531,0,0,1-.22,3.516q-.22,1.831-.513,3.772t-.513,3.845a32.576,32.576,0,0,0-.22,3.735,11.2,11.2,0,0,0,.732,4.358,7.95,7.95,0,0,0,1.831,2.747A6.264,6.264,0,0,0,132.715-4.5a7.438,7.438,0,0,0,2.271.4,9.825,9.825,0,0,0,5.933-2.051,27.935,27.935,0,0,0,5.127-4.944,47.685,47.685,0,0,0,4.211-6.116q1.868-3.223,3.113-5.64a2.59,2.59,0,0,1,1.025-1.025,2.824,2.824,0,0,1,1.392-.366,2.573,2.573,0,0,1,2.051.842,2.78,2.78,0,0,1,.732,1.868,2.907,2.907,0,0,1-.293,1.318q-1.685,3-3.918,6.775a48.519,48.519,0,0,1-5.09,7.068,29.433,29.433,0,0,1-6.409,5.566,14.194,14.194,0,0,1-7.8,2.271,12.681,12.681,0,0,1-4.98-.989,11.593,11.593,0,0,1-4.065-2.856,13.877,13.877,0,0,1-2.747-4.614,17.6,17.6,0,0,1-1.025-6.189,36.714,36.714,0,0,1,.732-7.288,34.974,34.974,0,0,0,.732-6.921,3.047,3.047,0,0,0-.623-2.087q-.623-.7-2.747-.7H118.1Q116.895-30.176,115.5-30.1Zm-4.907-5.42q0-.513-.037-1.355t-.146-1.648a8.619,8.619,0,0,0-.293-1.392q-.183-.586-.4-.586t-.549.549q-.33.549-.7,1.318a14.484,14.484,0,0,0-.659,1.648q-.293.879-.439,1.465Zm90.6,15.234q-.439.806-1.5,2.93a44.54,44.54,0,0,1-2.856,4.8,55.843,55.843,0,0,1-4.285,5.53,35.6,35.6,0,0,1-5.713,5.237,30.567,30.567,0,0,1-7.214,3.918,23.938,23.938,0,0,1-8.679,1.538,17.331,17.331,0,0,1-7.4-1.5,15.578,15.578,0,0,1-5.493-4.248,18.949,18.949,0,0,1-3.442-6.482,27.558,27.558,0,0,1-1.172-8.276,26.592,26.592,0,0,1,1.245-8.24,22.489,22.489,0,0,1,3.406-6.7,16.826,16.826,0,0,1,5.017-4.5,11.973,11.973,0,0,1,6.079-1.648,11.105,11.105,0,0,1,4.395.842,10.117,10.117,0,0,1,3.333,2.234,10.852,10.852,0,0,1,2.124,3.076,8.053,8.053,0,0,1,.769,3.369,10.758,10.758,0,0,1-.4,3,10.743,10.743,0,0,1-1.025,2.454,5.793,5.793,0,0,1-1.428,1.685,2.632,2.632,0,0,1-1.611.623,2.657,2.657,0,0,1-2.014-.806,2.756,2.756,0,0,1-.769-1.978,2,2,0,0,1,.256-1.025q.256-.439.586-.916a5.241,5.241,0,0,0,.586-1.172,5.274,5.274,0,0,0,.256-1.794,3.647,3.647,0,0,0-1.428-2.783,5.317,5.317,0,0,0-3.625-1.245,6.956,6.956,0,0,0-3.918,1.245,11.8,11.8,0,0,0-3.259,3.333,18.163,18.163,0,0,0-2.234,4.907,20.751,20.751,0,0,0-.842,5.969,21.807,21.807,0,0,0,.732,5.713,15.154,15.154,0,0,0,2.2,4.8,11.009,11.009,0,0,0,3.7,3.333,10.741,10.741,0,0,0,5.31,1.245A18.572,18.572,0,0,0,178.2-3.259a26.677,26.677,0,0,0,6.152-3.625,31.533,31.533,0,0,0,4.907-4.8,56.883,56.883,0,0,0,3.625-4.907,39.193,39.193,0,0,0,2.344-4.028q.842-1.721.989-2.161a2.243,2.243,0,0,1,.989-1.135,2.946,2.946,0,0,1,1.5-.4,2.548,2.548,0,0,1,2.014.879,2.925,2.925,0,0,1,.769,1.978A3.376,3.376,0,0,1,201.2-20.288ZM202-6.226q1.172-2.49,2.71-5.383t3.3-5.933q1.758-3.04,3.735-6.042t4.1-5.64a14.544,14.544,0,0,1,4.285-3.7,8.786,8.786,0,0,1,4.065-1.135,6.924,6.924,0,0,1,3.333.769,6.65,6.65,0,0,1,2.344,2.087,9.864,9.864,0,0,1,1.392,3.076,14.53,14.53,0,0,1,.476,3.809,40.835,40.835,0,0,1-.33,4.5,50.8,50.8,0,0,0-.33,5.9,32.865,32.865,0,0,0,.183,3.479,13.641,13.641,0,0,0,.659,3.076,5.14,5.14,0,0,0,1.428,2.2,3.619,3.619,0,0,0,2.49.842,7.116,7.116,0,0,0,3.516-.989A16.6,16.6,0,0,0,242.8-7.947a33.845,33.845,0,0,0,3.223-3.662q1.538-2.014,2.783-4.028t2.2-3.882q.952-1.868,1.538-3.113a2.591,2.591,0,0,1,2.563-1.685,2.44,2.44,0,0,1,1.978.879,2.917,2.917,0,0,1,.732,1.9,2.759,2.759,0,0,1-.22,1.1q-.293.586-1.135,2.417a47.927,47.927,0,0,1-2.271,4.248q-1.428,2.417-3.333,5.054a36.554,36.554,0,0,1-4.211,4.871,22.168,22.168,0,0,1-4.98,3.662,11.73,11.73,0,0,1-5.6,1.428,9.305,9.305,0,0,1-5.42-1.428,9.893,9.893,0,0,1-3.186-3.625,15.612,15.612,0,0,1-1.538-4.907,35.853,35.853,0,0,1-.4-5.273q0-1.318.11-2.82t.256-2.966q.146-1.465.256-2.747t.11-2.161a5.352,5.352,0,0,0-.623-3.076,1.789,1.789,0,0,0-1.428-.806,4.28,4.28,0,0,0-2.673,1.355,25,25,0,0,0-3.149,3.552,57.885,57.885,0,0,0-3.3,4.944q-1.648,2.747-3.186,5.457t-2.783,5.164q-1.245,2.454-2.051,4.065A10.72,10.72,0,0,1,203.943.11a5.218,5.218,0,0,1-2.82,1.062,3.94,3.94,0,0,1-3.479-1.794,7.62,7.62,0,0,1-1.208-4.358V-9.595q0-13.843.037-26.4t.366-23.364q.33-10.8,1.1-19.556a98.783,98.783,0,0,1,2.307-14.941,28.74,28.74,0,0,1,3.918-9.558,7.088,7.088,0,0,1,5.969-3.369,8.107,8.107,0,0,1,5.2,1.685,12.121,12.121,0,0,1,3.442,4.578,25.492,25.492,0,0,1,1.9,6.738,53.714,53.714,0,0,1,.586,8.093,90.9,90.9,0,0,1-1.575,16.956,124.536,124.536,0,0,1-4.211,16.223A142.8,142.8,0,0,1,209.326-37.1q-3.516,7.507-7.4,14.612V-9.668Zm0-27.026q3.076-6.738,5.6-13.147a133.5,133.5,0,0,0,4.321-12.781,110.844,110.844,0,0,0,2.82-12.927,88.313,88.313,0,0,0,1.025-13.66q0-1.172-.11-3.735A32.241,32.241,0,0,0,215-94.7a15.607,15.607,0,0,0-1.685-4.614,3.517,3.517,0,0,0-3.186-1.978q-1.611,0-2.783,2.161a24.366,24.366,0,0,0-2.051,5.859,77.241,77.241,0,0,0-1.465,8.606q-.586,4.907-.952,10.4t-.549,11.279q-.183,5.786-.256,11.243T202-41.528ZM276.855-8.2a22.1,22.1,0,0,1-5.969,6.592A11.764,11.764,0,0,1,264.038.806a11.643,11.643,0,0,1-4.98-1.025,11.285,11.285,0,0,1-3.809-2.893,12.729,12.729,0,0,1-2.454-4.5,19.453,19.453,0,0,1-.842-5.933,37.616,37.616,0,0,1,.989-9.082A42.314,42.314,0,0,1,255.1-29.26a21.9,21.9,0,0,1,2.2-4.065l1.025-1.392a2.266,2.266,0,0,1,.916-.659,3.03,3.03,0,0,1,1.135-.22,2.515,2.515,0,0,1,1.941.842,2.793,2.793,0,0,1,.769,1.941,2.27,2.27,0,0,1-.183.879q-.183.439-.4.879-.366.659-1.172,2.014a25.992,25.992,0,0,0-1.685,3.552,33.666,33.666,0,0,0-1.538,5.164,31.4,31.4,0,0,0-.659,6.775q0,4.321,1.721,6.555a5.79,5.79,0,0,0,4.871,2.234,7.087,7.087,0,0,0,3.04-.842,11.824,11.824,0,0,0,3.369-2.6,16.613,16.613,0,0,0,2.893-4.468,19.977,19.977,0,0,0,1.611-6.372l1.1-12.6A2.919,2.919,0,0,1,277-33.472a2.737,2.737,0,0,1,1.9-.732,2.4,2.4,0,0,1,1.978.916,3.25,3.25,0,0,1,.732,2.087l-.952,12.158a21.294,21.294,0,0,0,.11,4.028,22.887,22.887,0,0,0,1.062,4.907,11.1,11.1,0,0,0,2.417,4.138A5.547,5.547,0,0,0,288.5-4.248a7.778,7.778,0,0,0,3.735-.989,16.329,16.329,0,0,0,3.516-2.6,25.039,25.039,0,0,0,3.113-3.625q1.428-2.014,2.637-4.065t2.087-3.918q.879-1.868,1.465-3.186a2.889,2.889,0,0,1,1.025-1.245,2.584,2.584,0,0,1,1.465-.439,2.522,2.522,0,0,1,2.051.879,2.917,2.917,0,0,1,.732,1.9,2.759,2.759,0,0,1-.22,1.1q-.293.586-1.135,2.454t-2.2,4.248a55.692,55.692,0,0,1-3.259,5.017,35.117,35.117,0,0,1-4.248,4.871,22.218,22.218,0,0,1-5.09,3.662,12.594,12.594,0,0,1-5.9,1.428A10.626,10.626,0,0,1,281.1-1.208,14.575,14.575,0,0,1,276.855-8.2Zm46.655-.806a9.571,9.571,0,0,0,4.1,4.431,12.662,12.662,0,0,0,6.445,1.648,31.1,31.1,0,0,0,3.589-.33,16.274,16.274,0,0,0,5.75-2.2,29.788,29.788,0,0,0,6.921-5.9,46.135,46.135,0,0,0,7.1-11.353,2.652,2.652,0,0,1,1.025-1.208,2.754,2.754,0,0,1,1.465-.4,2.548,2.548,0,0,1,2.014.879,2.839,2.839,0,0,1,.769,1.9,3.376,3.376,0,0,1-.293,1.172,57.2,57.2,0,0,1-5.713,9.558,39.96,39.96,0,0,1-6.812,7.178A29.166,29.166,0,0,1,342.224.916a22.074,22.074,0,0,1-8.167,1.575,18.392,18.392,0,0,1-6.189-1.025,16.309,16.309,0,0,1-4.98-2.747,13.7,13.7,0,0,1-3.3-3.882,8.973,8.973,0,0,1-1.208-4.431,6.056,6.056,0,0,1,.073-.806,3.546,3.546,0,0,1,.4-1.135,4.194,4.194,0,0,1,.952-1.172,4.946,4.946,0,0,1,1.721-.916,32.181,32.181,0,0,0,5.53-2.161,20.8,20.8,0,0,0,4.358-2.893,12.546,12.546,0,0,0,2.856-3.552A8.878,8.878,0,0,0,335.3-26.44a4.233,4.233,0,0,0-1.318-3.223,4.519,4.519,0,0,0-3.223-1.245,6.635,6.635,0,0,0-3.882,1.355,18.815,18.815,0,0,0-3.7,3.589,36.637,36.637,0,0,0-3.406,5.127,66.073,66.073,0,0,0-2.966,6.042q-1.355,3.149-2.38,6.262t-1.685,5.75q-.22.806-.476,1.758A6.868,6.868,0,0,1,311.5.769a4.9,4.9,0,0,1-1.245,1.392,3.091,3.091,0,0,1-1.9.549,3.172,3.172,0,0,1-2.124-.916A4.011,4.011,0,0,1,305.2-1.318q0-.439.037-3.369t.11-7.654q.073-4.724.183-10.84t.183-12.964q.073-6.848.22-14.1t.22-14.136q.073-6.885.183-13.074t.183-10.986q.073-4.8.11-7.837t.037-3.625a2.469,2.469,0,0,1,.879-1.941,2.839,2.839,0,0,1,1.9-.769,2.756,2.756,0,0,1,1.978.769,2.657,2.657,0,0,1,.806,2.014q0,.146-.037,2.893t-.11,7.361q-.073,4.614-.183,10.767t-.22,13.074q-.11,6.921-.22,14.246t-.22,14.282q-.11,6.958-.183,13.257t-.146,11.133a75.127,75.127,0,0,1,3-7.874,43.993,43.993,0,0,1,4.321-7.654,24.841,24.841,0,0,1,5.6-5.786,11.471,11.471,0,0,1,6.921-2.271,10.109,10.109,0,0,1,3.955.769,9.847,9.847,0,0,1,3.186,2.124,9.847,9.847,0,0,1,2.124,3.186,10.109,10.109,0,0,1,.769,3.955,12.637,12.637,0,0,1-1.465,6.042,17.767,17.767,0,0,1-3.882,4.907,26.58,26.58,0,0,1-5.53,3.772A39.341,39.341,0,0,1,323.511-9.009Zm67.676.952a15.769,15.769,0,0,1-3.223-.293,21.486,21.486,0,0,1-2.637,4.065,17.36,17.36,0,0,1-3.552,3.259,17.166,17.166,0,0,1-4.5,2.2,17.519,17.519,0,0,1-5.42.806,16.006,16.006,0,0,1-6.3-1.208,15.227,15.227,0,0,1-4.98-3.369,15.022,15.022,0,0,1-3.3-5.2,18.485,18.485,0,0,1-1.172-6.7,18.546,18.546,0,0,1,1.685-8.167,22.585,22.585,0,0,1,3.882-5.786,16.935,16.935,0,0,1,4.395-3.442,8.241,8.241,0,0,1,3.3-1.135,2.451,2.451,0,0,1,1.868.659,2.455,2.455,0,0,1,.623,1.758,2.26,2.26,0,0,1-.769,1.868,10.689,10.689,0,0,1-1.941,1.208,14.083,14.083,0,0,0-2.49,1.648,13.046,13.046,0,0,0-2.454,2.673,14.572,14.572,0,0,0-1.868,3.809A15.46,15.46,0,0,0,361.6-14.5a13.512,13.512,0,0,0,.732,4.5,10.149,10.149,0,0,0,2.124,3.589,9.906,9.906,0,0,0,3.3,2.344A10.391,10.391,0,0,0,372-3.223a11.7,11.7,0,0,0,6.921-1.941,12.879,12.879,0,0,0,4.211-4.944,19.131,19.131,0,0,1-7.1-6.445,16.524,16.524,0,0,1-2.783-9.375,10.91,10.91,0,0,1,2.014-6.812,6.361,6.361,0,0,1,5.31-2.637,7.727,7.727,0,0,1,3.735.952,8.847,8.847,0,0,1,3.113,3,17.067,17.067,0,0,1,2.161,5.273,32.05,32.05,0,0,1,.806,7.69,22.025,22.025,0,0,1-.586,4.907,5.338,5.338,0,0,0,.879.073h.952a15.721,15.721,0,0,0,4.468-.586,11.7,11.7,0,0,0,3.589-1.758,12.59,12.59,0,0,0,2.893-3,30.98,30.98,0,0,0,2.454-4.248,2.2,2.2,0,0,1,.952-.842,3.016,3.016,0,0,1,1.465-.4,2.628,2.628,0,0,1,1.794.769,2.6,2.6,0,0,1,.842,2.014,3.329,3.329,0,0,1-.293,1.282q-.293.7-.586,1.282a30.01,30.01,0,0,1-2.893,4.211,17.829,17.829,0,0,1-3.882,3.516,19.415,19.415,0,0,1-5.017,2.38A19.245,19.245,0,0,1,391.187-8.057ZM378.662-26.514a12.656,12.656,0,0,0,.366,2.93,13.536,13.536,0,0,0,1.135,3.04,15.314,15.314,0,0,0,1.9,2.856,11.044,11.044,0,0,0,2.673,2.307,21.224,21.224,0,0,0,.22-3,28.464,28.464,0,0,0-.293-4.028,23.206,23.206,0,0,0-.842-3.772,9.241,9.241,0,0,0-1.355-2.783,2.348,2.348,0,0,0-1.9-1.062,2.06,2.06,0,0,0-1.172.659Q378.662-28.711,378.662-26.514Z" transform="translate(441.51 567.787)" fill="#ffc700"/>
    <text id="learn_telugu_easily" data-name="learn telugu easily" transform="translate(541 608.787)" fill="#0e1c2a" font-size="30" font-family="Poppins-Medium, Poppins" font-weight="500"><tspan x="0" y="0">LEARN TELUGU EASILY</tspan></text>
    <g id="Group_1084" data-name="Group 1084">
      <rect id="Rectangle_505" data-name="Rectangle 505" width="178" height="128" rx="53" transform="translate(227 478)" fill="#ffc700"/>
      <path id="Polygon_1" data-name="Polygon 1" d="M34.4,4.492a3,3,0,0,1,5.194,0L71.4,59.5A3,3,0,0,1,68.8,64H5.2a3,3,0,0,1-2.6-4.5Z" transform="matrix(-0.951, -0.309, 0.309, -0.951, 328.301, 643.867)" fill="#ffc700"/>
      <g id="Group_1078" data-name="Group 1078" transform="translate(46 -35)">
        <rect id="Rectangle_506" data-name="Rectangle 506" width="85" height="10" rx="5" transform="translate(228 559)" fill="#fff"/>
        <rect id="Rectangle_507" data-name="Rectangle 507" width="50" height="7" rx="3.5" transform="translate(228 585)" fill="#fff"/>
      </g>
    </g>
  </g>
</svg>
